<?xml version="1.0" encoding="utf-8"?>
<!-- Generator: Adobe Illustrator 24.0.1, SVG Export Plug-In . SVG Version: 6.00 Build 0)  -->
<svg version="1.1" id="Layer_1" xmlns="http://www.w3.org/2000/svg" xmlns:xlink="http://www.w3.org/1999/xlink" x="0px" y="0px"
	 viewBox="0 0 470.4 186.3" style="enable-background:new 0 0 470.4 186.3;" xml:space="preserve">
<style type="text/css">
	.st0{fill:#828281;}
	.st1{fill:#D31E45;}
</style>
<g>
	<g>
		<path class="st0" d="M193,147.6c-0.5-5.9-3-11-7.3-15.1c-4.4-4.1-9.6-6.2-15.6-6.2c-6.3,0-11.8,2.3-16.3,6.9
			c-4.4,4.6-6.7,10.1-6.7,16.6s2.3,12,6.7,16.6c4.5,4.6,10,6.9,16.3,6.9c4.9,0,9.4-1.5,13.3-4.4c3.9-2.8,6.6-6.5,8.3-11.1v-0.1h-9.5
			c-1.1,1.7-2.4,3.2-4.2,4.4c-2.4,1.7-5,2.5-8,2.5c-3.8,0-7.1-1.3-9.9-4c-2.1-2-3.4-4.3-4-6.9h36.7l0.1-2.7v-0.5V150
			C193.1,149.2,193.1,148.4,193,147.6z M156.4,145c0.7-2.4,2.1-4.5,4.1-6.3c2.7-2.6,5.9-3.8,9.6-3.8s6.9,1.2,9.7,3.8
			c1.9,1.8,3.3,3.9,4,6.3H156.4z"/>
	</g>
	<g>
		<path class="st0" d="M247.7,146.7v25.1h-8.6v-25.1c0-3.3-1.1-6.1-3.4-8.5c-2.3-2.3-4.9-3.5-8.1-3.5s-5.9,1.1-8.1,3.5
			c-2.3,2.4-3.4,5.1-3.4,8.5v25.1h-8.6v-25.1c0-5.6,2-10.5,5.9-14.5s8.7-6,14.3-6c5.5,0,10.3,2,14.3,6
			C245.7,136.2,247.7,141.1,247.7,146.7z"/>
	</g>
	<g>
		<path class="st0" d="M307.7,147.6c-0.5-5.9-3-11-7.3-15.1c-4.4-4.1-9.6-6.2-15.6-6.2c-6.3,0-11.8,2.3-16.3,6.9s-6.7,10.1-6.7,16.6
			s2.3,12,6.7,16.6c4.5,4.6,10,6.9,16.3,6.9c4.9,0,9.4-1.5,13.3-4.4c3.9-2.8,6.6-6.5,8.3-11.1v-0.1h-9.5c-1.1,1.7-2.4,3.2-4.2,4.4
			c-2.4,1.7-5,2.5-7.9,2.5c-3.9,0-7.1-1.3-9.9-4c-2-2-3.4-4.3-4-6.9h36.8l0.1-2.7v-0.5V150C307.8,149.2,307.8,148.4,307.7,147.6z
			 M271.1,145c0.7-2.4,2.1-4.5,4.1-6.3c2.8-2.6,5.9-3.8,9.7-3.8c3.7,0,6.9,1.2,9.7,3.8c1.9,1.8,3.3,3.9,4,6.3H271.1z"/>
	</g>
	<g>
		<path class="st0" d="M342.8,126.3v8.6c-0.2,0-0.4,0-0.6,0c-3.2,0-5.9,1.1-8.1,3.5c-2.3,2.3-3.4,5.1-3.4,8.4v25h-8.6v-25
			c0-5.6,2-10.5,5.9-14.5s8.7-6,14.3-6C342.4,126.3,342.6,126.3,342.8,126.3z"/>
	</g>
	<path class="st0" d="M396.3,132.9c-4.5-4.4-9.9-6.6-16.2-6.6s-11.8,2.3-16.3,6.9s-6.7,10.2-6.7,16.6s2.3,12,6.7,16.6
		c2,2,4.1,3.6,6.5,4.7c0.8,0.4,1.6,0.7,2.4,1c2.3,0.8,4.8,1.2,7.4,1.2c4.1,0,8-1.1,11.5-3.2c0.6-0.3,1.1-0.7,1.7-1.1
		c-0.7,1.6-1.7,3.1-3.1,4.4c-2.8,2.9-6.2,4.3-10.2,4.3c-3.1,0-5.8-0.8-8.2-2.6h-11.6l0.9,1.3c0.7,1.1,1.6,2.1,2.5,3
		c4.5,4.6,9.9,6.9,16.3,6.9c6.3,0,11.8-2.3,16.3-6.9c4.4-4.5,6.7-9.9,6.7-16.1v-14.2C403.1,142.8,400.9,137.3,396.3,132.9z
		 M394.5,150.2c-0.1,4-1.5,7.3-4.3,10.2c-2.8,2.8-6.1,4.2-10.1,4.2s-7.3-1.4-10.2-4.3s-4.3-6.4-4.3-10.5s1.4-7.6,4.3-10.5
		c2.9-2.9,6.2-4.3,10.2-4.3c3.9,0,7.2,1.4,10.1,4.2c2.8,2.8,4.3,6.2,4.3,10.3V150.2z"/>
	<path class="st0" d="M423.1,174.1L423.1,174.1c0,0.1,0.1,0.1,0.1,0.2l0,0C423.2,174.3,423.1,174.2,423.1,174.1z"/>
	<path class="st0" d="M423.1,174.1L423.1,174.1c0,0.1,0.1,0.1,0.1,0.2l0,0C423.2,174.3,423.1,174.2,423.1,174.1z"/>
	<path class="st0" d="M461.1,127.7v35.7c-0.1,6.2-2.3,11.7-6.7,16.1c-4.5,4.6-9.9,6.9-16.3,6.9c-6.3,0-11.9-2.3-16.3-6.9
		c-1-1-1.8-2-2.5-3l-1-1.5h11.5c2.4,1.8,5.1,2.7,8.3,2.7c4,0,7.3-1.4,10.2-4.3c1.1-1.1,2-2.4,2.7-3.7c-0.3,0.2-0.6,0.4-0.9,0.6
		c-3.3,1.9-6.9,2.9-10.8,2.9c-3,0-5.9-0.6-8.5-1.7c-0.4-0.2-0.8-0.3-1.1-0.6c-2.1-1-4.1-2.5-5.9-4.3c-4.2-4.3-6.4-9.7-6.4-15.7
		v-23.3h8.6v23.3c0,3.8,1.3,7,3.9,9.7c2.6,2.7,5.7,4,9.3,4c3.7,0,6.7-1.3,9.3-4c2.7-2.7,3.9-5.9,3.9-9.7v-23.3L461.1,127.7
		L461.1,127.7z"/>
	<g>
		<path class="st1" d="M323.2,90L323.2,90L323.2,90C323.2,90.1,323.2,90,323.2,90z"/>
		<g>
			<g>
				<path class="st0" d="M355.3,72.9c-0.6-3.5-2.6-6.2-5.5-7.7c-0.1,0.1-0.2,0.1-0.3,0.2c-0.4,0.4-0.9,0.8-1.4,1.2l-0.1,0.1
					c-0.2,0.2-0.5,0.4-0.7,0.6c-2.9,2.4-5.7,4.9-8.4,7.3l0.3,0.3l-0.3-0.2c-4.7,4.2-9.6,8.5-14.7,12.3c0,0,0,0-0.1,0l0,0l-0.5,0.4
					c-0.1,0.1-0.3,0.2-0.4,0.3l-0.4,0.3l-0.5,0.4l0,0c-3.5,2.5-7.8,5.3-12.7,7.2c-5.4,2.1-9.7,2.5-13.8,1.4
					c-6.9-1.8-11.2-6.3-12.6-13.2c-1.4-6.9,0.8-12.8,6.4-17.1c5.3-4,11.4-4.7,17.8-1.8c-4.1,4.1-8.2,8.2-12.4,12.3l-5.1,5.1
					c-1.3,1.3-1.9,2.8-1.9,4.4c0,1.5,0.6,2.9,1.7,3.9c1.1,1.1,2.5,1.6,3.9,1.6c1.6,0,3.1-0.7,4.3-1.9c2.6-2.6,5.2-5.2,7.7-7.7
					l1.2-1.2c5.1-5.1,10.2-10.2,15.4-15.3c1.7-1.7,0.5-3.1,0.2-3.5c-5.7-7-13-10.6-21.8-10.8c-0.2,0-0.5,0-0.7,0
					c-16.1,0-28.3,12.9-28.4,30c0.1,6.9,3.2,13.8,8.7,19c5.6,5.4,12.2,8.1,19.8,8.1c2.6,0,5.3-0.3,8.1-0.9c8.9-2,16.2-6.8,22.1-11.2
					c5.6-4.1,10.8-8.8,15.9-13.2c3.1-2.7,6.3-5.6,9.6-8.3C355.5,74.5,355.4,73.7,355.3,72.9z"/>
				<path class="st0" d="M401.5,93.7v-0.3c0-6.7,0-13.5-0.1-20.3c-0.1-9.6-7-18.4-16.5-20.8c-2-0.5-4-0.8-6-0.8
					c-5,0-10,1.5-16.3,4.8l-0.2,0.1c2.8,2.5,4.9,5.7,6.1,9.4h0.1c0.3-0.1,2.1-0.9,3.6-1.4h0.1c0,0,0.1,0,0.1-0.1l0.3-0.1l0,0
					c0.1,0,0.1,0,0.2-0.1l0.2-0.1c0.1,0,0.2-0.1,0.3-0.1s0.2-0.1,0.3-0.1c2.7-0.9,5.1-1.1,7.4-0.7c5.3,0.9,9,5.5,9,11
					c0,9.6,0,24.1,0,34.8h11.4C401.5,105.1,401.4,97.2,401.5,93.7z"/>
			</g>
			<path id="XMLID_6_" class="st0" d="M82.7,142.7C41.3,140.9,9.2,105.9,11,64.5c1.2-26.8,16.2-49.7,37.9-62
				C21.4,13.6,1.5,40,0.1,71.5c-1.9,43.1,31.6,79.5,74.7,81.4c31.6,1.4,59.5-16.2,73-42.6C133.6,130.8,109.5,143.8,82.7,142.7z"/>
			<path class="st0" d="M459.5,58.8c0,3.2-2.6,5.7-5.7,5.7c-3.2,0-5.7-2.6-5.7-5.7c0-3.2,2.6-5.7,5.7-5.7
				C457,53,459.5,55.6,459.5,58.8z"/>
			<path class="st0" d="M470.4,47.3c0,3.2-2.6,5.7-5.7,5.7c-3.2,0-5.7-2.6-5.7-5.7c0-3.2,2.6-5.7,5.7-5.7
				C467.8,41.5,470.4,44.1,470.4,47.3z"/>
		</g>
		<g>
			<path class="st1" d="M87.9,52.2c-15.4,0-28,12.6-28,28s12.6,28,28,28c5.8,0,11.4-1.8,16.2-5.1v5.1h11.8v-28
				C115.9,64.8,103.3,52.2,87.9,52.2z M87.9,64c8.9,0,16.2,7.3,16.2,16.2c0,8.9-7.3,16.2-16.2,16.2c-8.9,0-16.2-7.3-16.2-16.2
				S78.9,64,87.9,64z"/>
			<path class="st1" d="M151,52.2h-0.8c-15.4,0-28,12.6-28,28v28h11.9v-28c0-8.9,7.2-16.2,16.1-16.2h0.8V52.2z"/>
			<path class="st1" d="M178.9,64.1c5.1,0,10,2.4,12.9,6.4l0.2,0.3h13.2l-0.4-1.1c-4.3-10.6-14.4-17.5-25.9-17.5
				c-15.4,0-28,12.6-28,28s12.6,28,28,28c11.5,0,21.7-6.8,25.9-17.4l0.4-1.1H192l-0.2,0.3c-3,4-7.8,6.4-12.9,6.4
				c-8.9,0-16.1-7.3-16.1-16.2C162.8,71.3,170,64.1,178.9,64.1z"/>
			<path class="st1" d="M237.6,52.2c-5.8,0-11.4,1.8-16.1,5.2V25h-11.9v83.1h11.9v-28c0-8.9,7.2-16.1,16.1-16.1s16.2,7.2,16.2,16.1
				v28h11.8v-28C265.6,64.8,253,52.2,237.6,52.2z"/>
			<g>
				<path class="st1" d="M330.9,98c-2.3,1.7-4.7,3.4-7.4,5v5.9H335v-14C333.6,95.9,332.3,97,330.9,98z"/>
				<path class="st1" d="M368.2,84c0-3.3,0-6.6,0-9.9c0-1.6-0.1-3-0.4-4.4c-1.9-10.5-11.1-18.2-21.9-18.2
					c-10.7,0-19.9,7.6-21.9,18.1c-0.6,3.2-0.5,6.3-0.5,9.4c0,1.2,0,2.4,0,3.6v2.7c3.9-3,7.7-6.2,11.3-9.4c0.1-0.6,0.2-1.3,0.1-2.1
					c-0.1-5.5,4.1-10.3,9.5-10.8c0.4,0,0.8-0.1,1.2-0.1c5.6,0,10,3.6,11,9c0.4,2.2,0.3,4.3,0.3,6.7c0,1-0.1,1.9,0,2.9
					c0.1,7.4,0,19.7,0,27v0.4h11.4c0-6.3,0-17,0-23.2L368.2,84L368.2,84z"/>
			</g>
			<path class="st1" d="M460.7,75.7l-11.6,7.6l-0.1,0.3c-1,4.4-3.5,8-7,10.4c-4.7,3.1-10.6,3.5-15.5,1.3c-0.2-0.1-0.3-0.1-0.4-0.2
				c-0.8-0.4-1.5-0.9-2.2-1.4c-3.2-2.3-5.2-5.7-6.2-10c0-0.1,0-0.1,0-0.2c-0.5-2.4-0.5-4.7-0.2-6.8c0.7-4,2.9-7.5,6.6-10.3
				c5.3-4,11.4-4.7,17.8-1.8c-0.3,0.3-0.6,0.6-0.9,0.9l-0.6,0.6c-2.6,2.6-5.1,5.1-7.7,7.7c-0.1,0.1-0.2,0.2-0.3,0.3
				c-1,1-1.9,1.9-2.9,2.9l-5.2,5.2c-1.3,1.2-1.9,2.8-1.9,4.4c0,1.5,0.6,2.9,1.7,3.9c0.7,0.7,1.6,1.2,2.5,1.4h0.1
				c0.4,0.1,0.9,0.2,1.3,0.2c1.6,0,3.1-0.7,4.3-1.9l6-6l0.3-0.3c0.5-0.5,1-1,1.5-1.5l1.2-1.2c5.1-5.1,10.1-10.1,15.2-15.2
				c-0.9,0.4-2,0.6-3.1,0.6c-4.3,0-7.7-3.5-7.7-7.7c0-1.7,0.5-3.2,1.5-4.5c-3.7-1.8-7.7-2.8-12.2-2.9c-0.2,0-0.5,0-0.7,0
				c-7.8,0-14.7,3-19.7,8.1l0,0c-0.5,0.5-1,1.1-1.5,1.6l0,0c-4.3,5.1-6.9,11.8-7.2,19.4c0,0,0,0,0,0.1c0.1,5.1,1.6,10.1,4.6,14.6
				c8.5,12.9,25.9,16.4,38.8,8c0.6-0.4,1.2-0.9,1.8-1.3c5.2-4.3,8.6-10.4,9.7-17l0,0c0.4-2.6,0.5-5.3,0.1-8L460.7,75.7z"/>
			<path id="XMLID_5_" class="st1" d="M26.6,71.8C26.6,37,54.8,8.9,89.5,8.9c22.5,0,42.2,11.8,53.3,29.5C132.5,15.8,109.7,0,83.2,0
				C47,0,17.7,29.3,17.7,65.5c0,26.5,15.7,49.3,38.4,59.6C38.4,114,26.6,94.3,26.6,71.8z"/>
			<rect x="148.5" y="116.3" class="st1" width="312.6" height="3.7"/>
		</g>
	</g>
</g>
</svg>
