<svg width="1064" height="210" viewBox="0 0 1064 210" fill="none" xmlns="http://www.w3.org/2000/svg" class="w-28 sm:w-32 h-auto"><path d="M0 162.44L1.75 115.81H18.55L23.56 141.38C26.73 142.38 30.37 143.39 34.47 144.39C38.56 145.39 42.62 146.27 46.63 147.02C50.64 147.77 54.19 148.4 57.28 148.9C60.37 149.4 62.58 149.65 63.92 149.65C65.09 149.65 66.93 149.02 69.43 147.77C71.94 146.52 74.57 145.01 77.33 143.26C80.09 141.51 82.55 139.67 84.73 137.74C86.9 135.82 88.07 134.11 88.24 132.6C88.57 131.1 88.82 129.18 88.99 126.83C89.15 124.49 89.24 122.11 89.24 119.69C89.24 117.27 89.07 115.14 88.74 113.3C88.4 111.46 87.99 110.29 87.49 109.79C86.15 107.95 83.31 105.65 78.97 102.9C74.62 100.14 69.61 97.13 63.93 93.88C58.25 90.62 52.56 87.32 46.88 83.98C41.2 80.64 36.35 77.46 32.34 74.45C28.33 71.44 25.82 68.93 24.82 66.93C24.32 65.43 23.86 63.3 23.44 60.54C23.02 57.78 22.73 54.69 22.56 51.26C22.39 47.84 22.22 44.53 22.06 41.36C19.05 43.7 16.8 45.75 15.29 47.5C13.78 49.25 12.82 50.97 12.41 52.64C11.99 54.31 11.78 56.4 11.78 58.91C11.78 62.42 11.94 65.35 12.28 67.68C12.61 70.02 13.28 72.11 14.29 73.95C15.79 76.63 18.13 79.05 21.31 81.22C24.48 83.39 28.66 86.15 33.85 89.49C38.02 92 42.46 94.63 47.14 97.39C51.82 100.15 56.25 102.87 60.43 105.54C64.61 108.21 68.2 110.64 71.21 112.81C74.22 114.98 76.06 116.74 76.73 118.07C77.73 119.57 78.15 121.45 77.98 123.71C77.81 125.97 77.56 127.85 77.23 129.35C76.39 130.85 74.68 132.48 72.09 134.24C69.5 135.99 67.03 137.46 64.69 138.63C64.85 136.79 64.98 134.87 65.07 132.86C65.15 130.86 65.15 129.02 65.07 127.35C64.98 125.68 64.69 124.51 64.19 123.84C62.85 122.17 60.14 120 56.04 117.32C51.94 114.65 47.14 111.68 41.63 108.42C36.11 105.16 30.6 101.82 25.08 98.39C19.56 94.97 14.76 91.62 10.66 88.36C6.55997 85.1 3.92998 82.3 2.75998 79.96C2.08998 78.29 1.54997 76.07 1.12997 73.32C0.709974 70.56 0.459974 67.6 0.379974 64.42C0.289974 61.25 0.34 58.2 0.5 55.27C0.66 52.35 1 49.97 1.5 48.13C2.67 45.29 4.91999 42.11 8.26999 38.6C11.61 35.09 15.5 31.58 19.93 28.07C24.36 24.56 28.87 21.34 33.47 18.42C38.06 15.5 42.41 13.16 46.51 11.4C50.6 9.65002 53.91 8.77002 56.41 8.77002C57.58 8.77002 59.71 8.86002 62.8 9.02002C65.89 9.19002 69.57 9.44002 73.83 9.77002C78.09 10.11 82.56 10.52 87.24 11.02C91.92 11.52 96.3 12.02 100.4 12.52C104.49 13.02 108.05 13.52 111.05 14.02L109.05 58.14H92.76L88 31.57C85.66 30.4 82.65 29.31 78.97 28.31C75.29 27.31 71.61 26.47 67.94 25.8C64.26 25.13 61.34 24.8 59.17 24.8C58 24.8 57 24.89 56.16 25.05C55.32 25.22 54.61 25.47 54.03 25.8C53.44 26.14 52.98 26.64 52.65 27.3C51.81 28.3 51.23 29.98 50.9 32.31C50.56 34.65 50.44 37.16 50.52 39.83C50.6 42.5 50.85 44.93 51.27 47.1C51.69 49.27 52.23 50.78 52.9 51.61C54.23 53.28 56.79 55.29 60.55 57.63C64.31 59.97 68.61 62.44 73.46 65.03C78.31 67.62 83.36 70.38 88.63 73.3C93.89 76.23 98.7 79.23 103.05 82.33C107.39 85.42 110.82 88.47 113.33 91.48C113.83 93.15 114.21 95.74 114.46 99.25C114.71 102.76 114.88 106.52 114.96 110.53C115.04 114.54 115 118.47 114.83 122.31C114.66 126.16 114.41 129.42 114.08 132.09C112.41 135.77 109.48 139.61 105.31 143.62C101.13 147.63 96.41 151.35 91.15 154.78C85.89 158.21 80.91 160.92 76.23 162.93C71.55 164.93 67.87 165.94 65.2 165.94C61.86 165.94 57.34 165.82 51.66 165.56C45.98 165.31 39.92 165.02 33.48 164.68C27.04 164.34 20.86 164.01 14.93 163.68C8.97999 163.37 4.01 162.95 0 162.44Z" fill="#EC008C"></path><path d="M167.21 165.95C158.85 165.95 152.04 164.45 146.78 161.44C141.52 158.43 137.59 154.34 135 149.16C132.41 143.98 131.11 138.22 131.11 131.86C131.11 128.02 131.57 124.01 132.49 119.83C133.41 115.65 134.79 111.64 136.63 107.8L161.44 118.32C160.94 119.99 160.52 121.87 160.19 123.96C159.85 126.05 159.69 128.18 159.69 130.35C159.69 134.2 160.4 137.49 161.82 140.25C163.24 143.01 166.21 144.39 170.72 144.39C171.89 144.39 173.68 143.85 176.11 142.76C178.53 141.68 181.33 140.3 184.51 138.62C187.68 136.95 190.86 135.28 194.04 133.61V146.15C190.53 148.83 186.81 151.71 182.88 154.8C178.95 157.89 175.52 160.53 172.6 162.7C169.67 164.87 167.87 165.95 167.21 165.95ZM136.62 107.79L191.52 100.52V113.56L158.43 120.83L136.62 107.79ZM138.88 67.43L143.64 48.38C149.32 47.88 154.75 47.59 159.93 47.5C165.11 47.42 170.12 47.38 174.97 47.38C179.81 47.38 184.41 47.63 188.76 48.13C191.27 48.47 194.19 49.93 197.53 52.52C200.87 55.11 204.17 58.2 207.43 61.8C210.69 65.4 213.4 69.03 215.58 72.71C217.75 76.39 218.84 79.48 218.84 81.99V145.92L228.37 149.68V161.46C224.69 162.13 220.76 162.8 216.59 163.47C212.41 164.14 208.73 164.72 205.56 165.22C202.38 165.72 200.3 165.97 199.29 165.97C198.79 165.97 197.83 165.38 196.41 164.22C194.99 163.05 193.65 161.71 192.4 160.21C191.15 158.71 190.52 157.62 190.52 156.95V146.92L189.52 144.41V87C189.52 81.82 188.64 78.06 186.89 75.72C185.14 73.38 182.08 72.13 177.74 71.96C175.23 71.63 171.97 71.46 167.96 71.46C163.95 71.46 159.64 71.55 155.05 71.71C150.45 71.88 146.23 72.05 142.39 72.21L138.88 67.43Z" fill="#EC008C"></path><path d="M258.71 165.95C258.04 165.95 256.96 165.32 255.45 164.07C253.95 162.82 252.44 161.44 250.94 159.93C249.44 158.42 248.68 157.42 248.68 156.92V67.42L239.15 63.66V51.88C244.5 50.88 248.97 50.13 252.56 49.62C256.15 49.12 259.49 48.62 262.59 48.12C265.68 47.62 267.64 47.37 268.48 47.37C268.98 47.37 269.9 48 271.24 49.25C272.58 50.5 273.87 51.88 275.13 53.39C276.38 54.89 277.01 55.9 277.01 56.4V64.42C279.18 62.75 281.6 60.95 284.28 59.03C286.95 57.11 289.54 55.27 292.05 53.51C294.56 51.76 296.73 50.29 298.57 49.12C300.41 47.95 301.49 47.37 301.83 47.37C309.68 47.37 316.41 48.54 322.01 50.88C327.61 53.22 331.91 57.36 334.92 63.29C337.93 69.22 339.43 77.37 339.43 87.73V145.64L348.71 149.4V161.18C343.53 162.18 339.1 162.98 335.42 163.56C331.74 164.14 328.44 164.69 325.52 165.19C322.59 165.69 320.8 165.94 320.13 165.94C319.63 165.94 318.54 165.31 316.87 164.06C315.2 162.81 313.65 161.43 312.23 159.92C310.81 158.42 310.1 157.41 310.1 156.91V87.72C310.1 81.7 309.3 77.4 307.72 74.81C306.13 72.22 304.34 70.67 302.33 70.17C300.32 69.67 298.82 69.42 297.82 69.42C297.15 69.42 295.73 69.84 293.56 70.67C291.39 71.51 288.92 72.51 286.16 73.68C283.4 74.85 280.68 76.1 278.01 77.44V145.63L287.29 149.39V161.17C282.11 162.17 277.72 162.97 274.13 163.55C270.53 164.13 267.24 164.68 264.23 165.18C261.22 165.7 259.38 165.95 258.71 165.95Z" fill="#EC008C"></path><path d="M366.26 162.44L368.01 115.81H384.81L389.82 141.38C392.99 142.38 396.63 143.39 400.73 144.39C404.82 145.39 408.88 146.27 412.89 147.02C416.9 147.77 420.45 148.4 423.54 148.9C426.63 149.4 428.84 149.65 430.18 149.65C431.35 149.65 433.19 149.02 435.69 147.77C438.2 146.52 440.83 145.01 443.59 143.26C446.35 141.51 448.81 139.67 450.99 137.74C453.16 135.82 454.33 134.11 454.5 132.6C454.83 131.1 455.08 129.18 455.25 126.83C455.41 124.49 455.5 122.11 455.5 119.69C455.5 117.27 455.33 115.14 455 113.3C454.66 111.46 454.25 110.29 453.75 109.79C452.41 107.95 449.57 105.65 445.23 102.9C440.88 100.14 435.87 97.13 430.19 93.88C424.51 90.62 418.82 87.32 413.14 83.98C407.46 80.64 402.61 77.46 398.6 74.45C394.59 71.44 392.08 68.93 391.08 66.93C390.58 65.43 390.12 63.3 389.7 60.54C389.28 57.78 388.99 54.69 388.82 51.26C388.65 47.84 388.48 44.53 388.32 41.36C385.31 43.7 383.06 45.75 381.55 47.5C380.04 49.25 379.08 50.97 378.67 52.64C378.25 54.31 378.04 56.4 378.04 58.91C378.04 62.42 378.2 65.35 378.54 67.68C378.87 70.02 379.54 72.11 380.55 73.95C382.05 76.63 384.39 79.05 387.57 81.22C390.74 83.39 394.92 86.15 400.11 89.49C404.28 92 408.72 94.63 413.4 97.39C418.08 100.15 422.51 102.87 426.69 105.54C430.87 108.21 434.46 110.64 437.47 112.81C440.48 114.98 442.32 116.74 442.99 118.07C443.99 119.57 444.41 121.45 444.24 123.71C444.07 125.97 443.82 127.85 443.49 129.35C442.65 130.85 440.94 132.48 438.35 134.24C435.76 135.99 433.29 137.46 430.95 138.63C431.11 136.79 431.24 134.87 431.33 132.86C431.41 130.86 431.41 129.02 431.33 127.35C431.24 125.68 430.95 124.51 430.45 123.84C429.11 122.17 426.4 120 422.3 117.32C418.2 114.65 413.4 111.68 407.89 108.42C402.37 105.16 396.86 101.82 391.34 98.39C385.82 94.97 381.02 91.62 376.92 88.36C372.82 85.1 370.19 82.3 369.02 79.96C368.35 78.29 367.81 76.07 367.39 73.32C366.97 70.56 366.72 67.6 366.64 64.42C366.55 61.25 366.6 58.2 366.76 55.27C366.92 52.35 367.26 49.97 367.76 48.13C368.93 45.29 371.18 42.11 374.53 38.6C377.87 35.09 381.76 31.58 386.19 28.07C390.62 24.56 395.13 21.34 399.73 18.42C404.32 15.5 408.67 13.16 412.77 11.4C416.86 9.65002 420.17 8.77002 422.67 8.77002C423.84 8.77002 425.97 8.86002 429.06 9.02002C432.15 9.19002 435.83 9.44002 440.09 9.77002C444.35 10.11 448.82 10.52 453.5 11.02C458.18 11.52 462.56 12.02 466.66 12.52C470.75 13.02 474.31 13.52 477.31 14.02L475.31 58.14H459.02L454.26 31.57C451.92 30.4 448.91 29.31 445.23 28.31C441.55 27.31 437.87 26.47 434.2 25.8C430.52 25.13 427.6 24.8 425.43 24.8C424.26 24.8 423.26 24.89 422.42 25.05C421.58 25.22 420.87 25.47 420.29 25.8C419.7 26.14 419.24 26.64 418.91 27.3C418.07 28.3 417.49 29.98 417.16 32.31C416.82 34.65 416.7 37.16 416.78 39.83C416.86 42.5 417.11 44.93 417.53 47.1C417.95 49.27 418.49 50.78 419.16 51.61C420.49 53.28 423.05 55.29 426.81 57.63C430.57 59.97 434.87 62.44 439.72 65.03C444.57 67.62 449.62 70.38 454.89 73.3C460.15 76.23 464.96 79.23 469.31 82.33C473.65 85.42 477.08 88.47 479.59 91.48C480.09 93.15 480.47 95.74 480.72 99.25C480.97 102.76 481.14 106.52 481.22 110.53C481.3 114.54 481.26 118.47 481.09 122.31C480.92 126.16 480.67 129.42 480.34 132.09C478.67 135.77 475.74 139.61 471.57 143.62C467.39 147.63 462.67 151.35 457.41 154.78C452.15 158.21 447.17 160.92 442.49 162.93C437.81 164.93 434.13 165.94 431.46 165.94C428.12 165.94 423.6 165.82 417.92 165.56C412.24 165.31 406.18 165.02 399.74 164.68C393.3 164.34 387.12 164.01 381.19 163.68C375.24 163.37 370.27 162.95 366.26 162.44Z" fill="#2E3192"></path><path d="M495.36 16.29V4.51001C499.03 4.01001 502.21 3.51001 504.89 3.01001C507.56 2.51001 510.32 2.01001 513.16 1.51001C516 1.01001 518.51 0.630005 520.68 0.380005C522.85 0.130005 524.27 0 524.94 0C525.61 0 526.65 0.630005 528.07 1.88C529.49 3.13 530.87 4.47001 532.21 5.89001C533.55 7.31001 534.22 8.36002 534.22 9.02002L532.72 63.92L533.97 64.17C536.14 62.5 538.52 60.75 541.11 58.91C543.7 57.07 546.21 55.24 548.63 53.39C551.05 51.55 553.14 50.09 554.9 49C556.65 47.92 557.7 47.37 558.03 47.37C566.05 47.37 572.82 48.54 578.34 50.88C583.86 53.22 588.07 57.36 591 63.29C593.92 69.22 595.39 77.37 595.39 87.73V155.17C595.39 160.02 594.34 165.2 592.26 170.71C590.17 176.22 587.16 181.49 583.24 186.5C579.31 191.51 574.5 195.53 568.82 198.53L559.79 191.01C561.96 186.16 563.46 181.65 564.3 177.47C565.13 173.29 565.64 169.2 565.8 165.19C565.97 161.18 566.05 157.17 566.05 153.16V87.73C566.05 81.71 565.26 77.41 563.67 74.82C562.08 72.23 560.37 70.68 558.53 70.18C556.69 69.68 555.18 69.43 554.02 69.43C553.35 69.43 551.68 69.97 549.01 71.06C546.33 72.15 543.53 73.32 540.61 74.57C537.68 75.82 535.55 76.79 534.22 77.45V145.64L543.5 149.4V161.18C538.15 162.18 533.68 162.98 530.09 163.56C526.49 164.14 523.2 164.69 520.19 165.19C517.18 165.69 515.34 165.94 514.67 165.94C514 165.94 512.92 165.31 511.41 164.06C509.91 162.81 508.44 161.43 507.02 159.92C505.6 158.42 504.89 157.41 504.89 156.91V20.05L495.36 16.29Z" fill="#2E3192"></path><path d="M670.34 165.95C652.29 165.95 638.5 161.56 628.97 152.79C619.44 144.02 614.68 130.27 614.68 111.55C614.68 104.03 615.31 96.76 616.56 89.74C617.81 82.72 619.27 77.54 620.95 74.2C622.45 72.19 625.09 69.65 628.85 66.55C632.61 63.46 636.79 60.49 641.38 57.65C645.97 54.81 650.19 52.39 654.04 50.38C657.88 48.38 660.64 47.37 662.31 47.37C680.36 47.37 693.94 52.01 703.05 61.28C712.16 70.56 716.71 83.72 716.71 100.76C716.71 109.12 716.08 116.8 714.83 123.82C713.58 130.84 712.2 136.27 710.69 140.11C709.35 141.95 706.84 144.29 703.17 147.13C699.49 149.97 695.4 152.86 690.89 155.78C686.38 158.71 682.2 161.13 678.35 163.05C674.52 164.99 671.85 165.95 670.34 165.95ZM671.1 149.66C671.6 149.49 672.73 149.03 674.48 148.28C676.23 147.53 678.7 146.32 681.88 144.65C682.71 140.81 683.55 135.71 684.39 129.36C685.22 123.01 685.64 114.66 685.64 104.29C685.64 96.6 684.8 89.71 683.13 83.61C681.46 77.51 678.83 72.67 675.23 69.07C671.63 65.48 667 63.68 661.32 63.68C659.98 63.68 658.64 63.8 657.31 64.06C655.97 64.31 654.55 64.69 653.05 65.19C651.04 66.19 649.33 70.45 647.91 77.98C646.49 85.5 645.78 95.53 645.78 108.06C645.78 119.26 647.07 127.91 649.67 134.01C652.26 140.11 655.52 144.25 659.45 146.42C663.36 148.57 667.25 149.66 671.1 149.66Z" fill="#2E3192"></path><path d="M792.93 47.3801C800.45 47.3801 807.35 49.4301 813.61 53.5201C819.88 57.6201 824.85 63.6701 828.53 71.7001C832.2 79.7201 834.05 89.7501 834.05 101.78C834.05 109.97 833.46 117.49 832.3 124.34C831.13 131.2 829.71 136.46 828.04 140.13C826.54 142.14 823.9 144.56 820.14 147.4C816.38 150.24 812.33 153.08 807.98 155.92C803.63 158.76 799.54 161.14 795.7 163.06C791.85 164.98 789.18 165.94 787.68 165.94C786.34 165.94 784 165.73 780.66 165.31C777.31 164.89 773.47 164.35 769.13 163.68V188.25L779.41 192.26V204.54C777.74 205.04 775.36 205.54 772.27 206.04C769.18 206.54 765.92 207.04 762.49 207.54C759.06 208.04 756.05 208.46 753.46 208.79C750.87 209.12 749.16 209.29 748.32 209.29C747.82 209.29 746.86 208.62 745.44 207.28C744.02 205.94 742.64 204.56 741.3 203.14C739.96 201.72 739.29 200.67 739.29 200.01L740.79 158.14V67.3901L731.26 63.6301V51.8501C732.93 51.5201 735.23 51.1001 738.15 50.6001C741.07 50.1001 744.08 49.6001 747.18 49.1001C750.27 48.6001 752.98 48.1801 755.33 47.8501C757.67 47.5201 759.17 47.3501 759.84 47.3501C760.51 47.3501 761.55 47.98 762.97 49.23C764.39 50.48 765.73 51.8201 766.98 53.2401C768.23 54.6601 768.86 55.7101 768.86 56.3701V64.8901C771.53 62.7201 774.67 60.3001 778.26 57.6201C781.85 54.9501 785.11 52.57 788.04 50.48C790.97 48.42 792.59 47.3801 792.93 47.3801ZM789.17 69.1901C788.67 69.1901 787.25 69.6901 784.91 70.6901C782.57 71.6901 780.02 72.8601 777.26 74.2001C774.5 75.5401 772.12 76.7101 770.12 77.7101V143.89C772.46 144.89 775.34 145.94 778.77 147.02C782.19 148.11 785.45 148.94 788.55 149.53C791.64 150.12 793.77 150.24 794.94 149.91C796.61 149.41 798.03 147.65 799.2 144.65C800.37 141.64 801.29 136.96 801.96 130.61C802.63 124.26 802.96 115.74 802.96 105.04C802.96 97.02 802.17 90.37 800.58 85.11C798.99 79.85 797.11 75.8801 794.94 73.2001C792.76 70.5301 790.84 69.1901 789.17 69.1901Z" fill="#2E3192"></path><path d="M910.5 47.3801C918.02 47.3801 924.92 49.4301 931.18 53.5201C937.45 57.6201 942.42 63.6701 946.1 71.7001C949.77 79.7201 951.62 89.7501 951.62 101.78C951.62 109.97 951.03 117.49 949.87 124.34C948.7 131.2 947.28 136.46 945.61 140.13C944.11 142.14 941.47 144.56 937.71 147.4C933.95 150.24 929.9 153.08 925.55 155.92C921.2 158.76 917.11 161.14 913.27 163.06C909.42 164.98 906.75 165.94 905.25 165.94C903.91 165.94 901.57 165.73 898.23 165.31C894.88 164.89 891.04 164.35 886.7 163.68V188.25L896.98 192.26V204.54C895.31 205.04 892.93 205.54 889.84 206.04C886.75 206.54 883.49 207.04 880.06 207.54C876.63 208.04 873.62 208.46 871.03 208.79C868.44 209.12 866.73 209.29 865.89 209.29C865.39 209.29 864.43 208.62 863.01 207.28C861.59 205.94 860.21 204.56 858.87 203.14C857.53 201.72 856.86 200.67 856.86 200.01L858.36 158.14V67.3901L848.83 63.6301V51.8501C850.5 51.5201 852.8 51.1001 855.72 50.6001C858.64 50.1001 861.65 49.6001 864.75 49.1001C867.84 48.6001 870.55 48.1801 872.9 47.8501C875.24 47.5201 876.74 47.3501 877.41 47.3501C878.08 47.3501 879.12 47.98 880.54 49.23C881.96 50.48 883.3 51.8201 884.55 53.2401C885.8 54.6601 886.43 55.7101 886.43 56.3701V64.8901C889.1 62.7201 892.24 60.3001 895.83 57.6201C899.42 54.9501 902.68 52.57 905.61 50.48C908.54 48.42 910.17 47.3801 910.5 47.3801ZM906.74 69.1901C906.24 69.1901 904.82 69.6901 902.48 70.6901C900.14 71.6901 897.59 72.8601 894.83 74.2001C892.07 75.5401 889.69 76.7101 887.69 77.7101V143.89C890.03 144.89 892.91 145.94 896.34 147.02C899.76 148.11 903.02 148.94 906.12 149.53C909.21 150.12 911.34 150.24 912.51 149.91C914.18 149.41 915.6 147.65 916.77 144.65C917.94 141.64 918.86 136.96 919.53 130.61C920.2 124.26 920.53 115.74 920.53 105.04C920.53 97.02 919.74 90.37 918.15 85.11C916.56 79.85 914.68 75.8801 912.51 73.2001C910.34 70.5301 908.41 69.1901 906.74 69.1901Z" fill="#2E3192"></path><path d="M1004.26 209.32C1003.76 209.32 1002.92 208.4 1001.75 206.56C1000.58 204.72 999.53 202.8 998.62 200.79C997.7 198.78 997.24 197.53 997.24 197.03L1008.77 163.19C1006.76 163.36 1004.92 163.57 1003.25 163.82C1001.58 164.07 1000.49 164.2 999.99 164.2C999.65 164.2 998.15 163.45 995.48 161.94L969.91 66.93L959.63 63.92V51.38C964.64 50.55 968.91 49.88 972.42 49.38C975.93 48.88 979.1 48.42 981.95 48C984.79 47.58 986.46 47.37 986.96 47.37C987.46 47.37 988.55 47.87 990.22 48.87C991.89 49.87 993.52 51.04 995.11 52.38C996.7 53.72 997.57 54.8 997.74 55.64L1010.78 113.3L1015.04 139.12H1017.55L1036.6 65.67L1021.06 63.66V49.62C1025.4 49.46 1029.21 49.2 1032.47 48.87C1035.73 48.54 1039.07 48.24 1042.5 47.99C1045.92 47.74 1048.85 47.57 1051.27 47.49C1053.69 47.41 1055.07 47.37 1055.41 47.37C1056.08 47.37 1057.04 48 1058.29 49.25C1059.54 50.5 1060.71 51.97 1061.8 53.64C1062.88 55.31 1063.34 56.57 1063.18 57.4L1030.09 161.94L1023.57 189.77L1034.6 194.28L1034.35 205.56C1028.83 206.39 1024.2 207.02 1020.44 207.44C1016.68 207.86 1013.21 208.27 1010.04 208.69C1006.85 209.11 1004.93 209.32 1004.26 209.32Z" fill="#2E3192"></path></svg>